<svg width="42" height="36" viewBox="0 0 42 36" fill="none" xmlns="http://www.w3.org/2000/svg">
<path d="M26.5986 0C35.1033 0.00026388 41.9988 6.89476 41.999 15.3994C41.999 23.9043 35.1034 30.7995 26.5986 30.7998H16.4082L5.80957 35.4531C5.54529 35.5691 5.24913 35.3755 5.24902 35.0869V26.9795C2.03162 24.157 0 20.0157 0 15.3994C0.000256501 6.8946 6.89454 0 15.3994 0H26.5986ZM29.0479 7C26.1484 7 23.7979 9.35056 23.7979 12.25C23.7979 12.8524 23.9011 13.4309 24.0879 13.9697L17.8779 16.04C17.1406 14.0326 15.2114 12.6008 12.9482 12.6006C10.0491 12.6008 7.69846 14.9505 7.69824 17.8496C7.69845 20.7488 10.0491 23.0994 12.9482 23.0996C15.8474 23.0994 18.198 20.7487 18.1982 17.8496C18.1982 17.6338 18.1826 17.4209 18.1572 17.2119L24.6143 15.0596C25.5455 16.5255 27.1825 17.5 29.0479 17.5C31.9468 17.4997 34.2976 15.149 34.2979 12.25C34.2979 9.35077 31.947 7.00035 29.0479 7Z" fill="#6B4EFF"/>
</svg>
