<svg xmlns="http://www.w3.org/2000/svg" width="24" height="24" viewBox="0 0 24 24" fill="none">
  <mask id="path-1-inside-1_727_7968" fill="white">
    <path d="M12 15C7.58 15 4 16.79 4 19V21H20V19C20 16.79 16.42 15 12 15ZM8 9C8 10.0609 8.42143 11.0783 9.17157 11.8284C9.92172 12.5786 10.9391 13 12 13C13.0609 13 14.0783 12.5786 14.8284 11.8284C15.5786 11.0783 16 10.0609 16 9M11.5 2C11.2 2 11 2.21 11 2.5V5.5H10V3C10 3 7.75 3.86 7.75 6.75C7.75 6.75 7 6.89 7 8H17C16.95 6.89 16.25 6.75 16.25 6.75C16.25 3.86 14 3 14 3V5.5H13V2.5C13 2.21 12.81 2 12.5 2H11.5Z"/>
  </mask>
  <path d="M12 15C7.58 15 4 16.79 4 19V21H20V19C20 16.79 16.42 15 12 15ZM8 9C8 10.0609 8.42143 11.0783 9.17157 11.8284C9.92172 12.5786 10.9391 13 12 13C13.0609 13 14.0783 12.5786 14.8284 11.8284C15.5786 11.0783 16 10.0609 16 9M11.5 2C11.2 2 11 2.21 11 2.5V5.5H10V3C10 3 7.75 3.86 7.75 6.75C7.75 6.75 7 6.89 7 8H17C16.95 6.89 16.25 6.75 16.25 6.75C16.25 3.86 14 3 14 3V5.5H13V2.5C13 2.21 12.81 2 12.5 2H11.5Z" fill="#6B4EFF"/>
  <path d="M4 21H3V22H4V21ZM20 21V22H21V21H20ZM12 13V14V13ZM11 5.5V6.5H12V5.5H11ZM10 5.5H9V6.5H10V5.5ZM10 3H11V1.54722L9.64297 2.06591L10 3ZM7.75 6.75L7.9335 7.73302L8.75 7.58061V6.75H7.75ZM7 8H6V9H7V8ZM17 8V9H18.0461L17.999 7.955L17 8ZM16.25 6.75H15.25V7.5698L16.0539 7.73058L16.25 6.75ZM14 3L14.357 2.06591L13 1.54722V3H14ZM14 5.5V6.5H15V5.5H14ZM13 5.5H12V6.5H13V5.5ZM12 15V14C9.66854 14 7.509 14.47 5.89529 15.2768C4.34113 16.0539 3 17.3124 3 19H4H5C5 18.4776 5.44887 17.7361 6.78971 17.0657C8.071 16.425 9.91146 16 12 16V15ZM4 19H3V21H4H5V19H4ZM4 21V22H20V21V20H4V21ZM20 21H21V19H20H19V21H20ZM20 19H21C21 17.3124 19.6589 16.0539 18.1047 15.2768C16.491 14.47 14.3315 14 12 14V15V16C14.0885 16 15.929 16.425 17.2103 17.0657C18.5511 17.7361 19 18.4776 19 19H20ZM8 9H7C7 10.3261 7.52678 11.5979 8.46447 12.5355L9.17157 11.8284L9.87868 11.1213C9.31607 10.5587 9 9.79565 9 9H8ZM9.17157 11.8284L8.46447 12.5355C9.40215 13.4732 10.6739 14 12 14V13V12C11.2044 12 10.4413 11.6839 9.87868 11.1213L9.17157 11.8284ZM12 13V14C13.3261 14 14.5979 13.4732 15.5355 12.5355L14.8284 11.8284L14.1213 11.1213C13.5587 11.6839 12.7956 12 12 12V13ZM14.8284 11.8284L15.5355 12.5355C16.4732 11.5979 17 10.3261 17 9H16H15C15 9.79565 14.6839 10.5587 14.1213 11.1213L14.8284 11.8284ZM11.5 2V1C11.1088 1 10.7186 1.14174 10.4254 1.43918C10.1343 1.73446 10 2.12083 10 2.5H11H12C12 2.58917 11.9657 2.72554 11.8496 2.84332C11.7314 2.96326 11.5912 3 11.5 3V2ZM11 2.5H10V5.5H11H12V2.5H11ZM11 5.5V4.5H10V5.5V6.5H11V5.5ZM10 5.5H11V3H10H9V5.5H10ZM10 3C9.64297 2.06591 9.64245 2.06611 9.64192 2.06631C9.64173 2.06638 9.64119 2.06659 9.64082 2.06673C9.64006 2.06702 9.63927 2.06733 9.63845 2.06765C9.6368 2.06829 9.63501 2.06898 9.63307 2.06974C9.62921 2.07126 9.62478 2.07302 9.61981 2.07502C9.60986 2.07903 9.59773 2.08402 9.58356 2.09005C9.55524 2.10208 9.51866 2.11828 9.47502 2.13896C9.38789 2.18026 9.27172 2.23988 9.13628 2.32064C8.86655 2.48148 8.51278 2.73072 8.15941 3.09273C7.43735 3.83244 6.75 5.01307 6.75 6.75H7.75H8.75C8.75 5.59693 9.18765 4.90256 9.59059 4.48977C9.79972 4.27553 10.0085 4.12915 10.1606 4.03842C10.2361 3.99341 10.2957 3.96326 10.3316 3.94624C10.3495 3.93776 10.3613 3.93265 10.3659 3.93068C10.3682 3.9297 10.3687 3.92951 10.3673 3.93009C10.3666 3.93038 10.3654 3.93086 10.3637 3.93153C10.3628 3.93186 10.3618 3.93224 10.3607 3.93267C10.3602 3.93288 10.3596 3.93311 10.359 3.93335C10.3587 3.93346 10.3582 3.93365 10.358 3.93371C10.3575 3.9339 10.357 3.93409 10 3ZM7.75 6.75C7.5665 5.76698 7.56581 5.76711 7.56512 5.76724C7.56488 5.76728 7.56419 5.76742 7.56371 5.7675C7.56277 5.76768 7.56181 5.76787 7.56084 5.76805C7.5589 5.76843 7.55689 5.76882 7.55484 5.76923C7.55072 5.77004 7.54638 5.77093 7.54183 5.77189C7.53272 5.77381 7.52272 5.77602 7.51189 5.77858C7.49025 5.78369 7.46517 5.79017 7.43714 5.79837C7.38128 5.8147 7.31249 5.83817 7.23521 5.87166C7.0812 5.9384 6.88665 6.04794 6.6953 6.22526C6.28485 6.60561 6 7.19317 6 8H7H8C8 7.69683 8.09015 7.65939 8.0547 7.69224C8.05085 7.69581 8.0438 7.70097 8.03042 7.70677C8.02345 7.70979 8.01326 7.71366 7.99841 7.718C7.99088 7.7202 7.98191 7.72259 7.97127 7.72511C7.96593 7.72637 7.96014 7.72766 7.95387 7.72898C7.95073 7.72964 7.94747 7.73031 7.94408 7.73098C7.94238 7.73132 7.94065 7.73166 7.93889 7.732C7.93801 7.73217 7.93712 7.73234 7.93622 7.73251C7.93577 7.73259 7.93509 7.73272 7.93486 7.73276C7.93418 7.73289 7.9335 7.73302 7.75 6.75ZM7 8V9H17V8V7H7V8ZM17 8L17.999 7.955C17.9638 7.17304 17.6854 6.608 17.2983 6.23687C17.1151 6.06124 16.9287 5.94987 16.7772 5.88032C16.7014 5.84557 16.6336 5.8209 16.5777 5.80348C16.5497 5.79475 16.5245 5.78777 16.5025 5.78222C16.4915 5.77944 16.4812 5.77701 16.4718 5.77489C16.4671 5.77383 16.4626 5.77285 16.4583 5.77194C16.4562 5.77148 16.4541 5.77105 16.4521 5.77063C16.451 5.77042 16.45 5.77021 16.449 5.77001C16.4486 5.76991 16.4478 5.76976 16.4476 5.76971C16.4468 5.76957 16.4461 5.76942 16.25 6.75C16.0539 7.73058 16.0532 7.73044 16.0524 7.73029C16.0522 7.73024 16.0515 7.7301 16.051 7.73C16.0501 7.72981 16.0491 7.72962 16.0482 7.72942C16.0463 7.72904 16.0445 7.72866 16.0427 7.72827C16.0391 7.7275 16.0356 7.72674 16.0322 7.72598C16.0255 7.72446 16.0192 7.72295 16.0133 7.72147C16.0015 7.71851 15.9914 7.71562 15.9826 7.71289C15.9652 7.70746 15.9525 7.70239 15.9431 7.69811C15.9244 7.68951 15.9162 7.68251 15.9142 7.68063C15.8896 7.657 15.9862 7.71696 16.001 8.045L17 8ZM16.25 6.75H17.25C17.25 5.01307 16.5627 3.83244 15.8406 3.09273C15.4872 2.73072 15.1335 2.48148 14.8637 2.32064C14.7283 2.23988 14.6121 2.18026 14.525 2.13896C14.4813 2.11828 14.4448 2.10208 14.4164 2.09005C14.4023 2.08402 14.3901 2.07903 14.3802 2.07502C14.3752 2.07302 14.3708 2.07126 14.3669 2.06974C14.365 2.06898 14.3632 2.06829 14.3616 2.06765C14.3607 2.06733 14.3599 2.06702 14.3592 2.06673C14.3588 2.06659 14.3583 2.06638 14.3581 2.06631C14.3576 2.06611 14.357 2.06591 14 3C13.643 3.93409 13.6425 3.9339 13.642 3.93371C13.6418 3.93365 13.6413 3.93346 13.641 3.93335C13.6404 3.93311 13.6398 3.93288 13.6393 3.93267C13.6382 3.93224 13.6372 3.93186 13.6363 3.93153C13.6346 3.93086 13.6334 3.93038 13.6327 3.93009C13.6313 3.92951 13.6318 3.9297 13.6341 3.93068C13.6387 3.93265 13.6505 3.93776 13.6684 3.94624C13.7043 3.96326 13.7639 3.99341 13.8394 4.03842C13.9915 4.12915 14.2003 4.27553 14.4094 4.48977C14.8123 4.90256 15.25 5.59693 15.25 6.75H16.25ZM14 3H13V5.5H14H15V3H14ZM14 5.5V4.5H13V5.5V6.5H14V5.5ZM13 5.5H14V2.5H13H12V5.5H13ZM13 2.5H14C14 2.13498 13.8773 1.74671 13.5834 1.44432C13.2852 1.13745 12.8892 1 12.5 1V2V3C12.4208 3 12.2748 2.96755 12.1491 2.83818C12.0277 2.71329 12 2.57502 12 2.5H13ZM12.5 2V1H11.5V2V3H12.5V2Z" fill="#6B4EFF" mask="url(#path-1-inside-1_727_7968)"/>
</svg>